<svg width="32" height="32" fill="none" xmlns="http://www.w3.org/2000/svg"><path fill-rule="evenodd" clip-rule="evenodd" d="M4.687 27.313A15.952 15.952 0 0 0 15.981 32V16.02L4.687 27.313z" fill="#79A8FA"/><path fill-rule="evenodd" clip-rule="evenodd" d="M15.98 16H0a15.95 15.95 0 0 0 4.687 11.313L15.98 16.02V16zM15.98 0A15.95 15.95 0 0 0 4.687 4.687L15.98 15.98V0z" fill="#A0C1FC"/><path fill-rule="evenodd" clip-rule="evenodd" d="M15.98 15.98L4.687 4.686A15.95 15.95 0 0 0 0 16h15.98v-.02zM16 16L27.315 4.686A15.952 15.952 0 0 0 16 0h-.02v15.98L16 16z" fill="#C5D9FD"/><path fill-rule="evenodd" clip-rule="evenodd" d="M32 16c0-4.418-1.79-8.418-4.686-11.314L16.001 16h16zM15.98 16.02v15.979L16 32c4.419 0 8.419-1.791 11.314-4.686L16.002 16l-.02.02z" fill="#A0C1FC"/><path fill-rule="evenodd" clip-rule="evenodd" d="M16 16l11.314 11.314A15.954 15.954 0 0 0 32 16H16z" fill="#79A8FA"/><path fill-rule="evenodd" clip-rule="evenodd" d="M15.982 19.55l5.107 3.716-1.954-6.002 5.106-3.634h-6.263l-1.996-6.193-1.996 6.193H7.724l5.106 3.634-1.955 6.002 5.107-3.716z" fill="#fff"/><path fill-rule="evenodd" clip-rule="evenodd" d="M15.98 16H16l-.02-.02V16zM15.98 16.02L16 16h-.02v.02z" fill="#79A8FA"/></svg>