<svg width="32" height="32" fill="none" xmlns="http://www.w3.org/2000/svg"><path fill-rule="evenodd" clip-rule="evenodd" d="M4.686 4.686c-6.244 6.244-6.248 16.363-.013 22.613L27.3 4.673c-6.25-6.235-16.37-6.23-22.613.013" fill="#BDBDBD"/><mask id="a" maskUnits="userSpaceOnUse" x="4" y="4" width="28" height="28"><path fill-rule="evenodd" clip-rule="evenodd" d="M4.673 4.673H32V32H4.673V4.673z" fill="#fff"/></mask><g mask="url(#a)"><path fill-rule="evenodd" clip-rule="evenodd" d="M27.314 27.314c6.248-6.25 6.248-16.38 0-22.628a.104.104 0 0 1-.015-.013L4.673 27.299l.013.015c6.248 6.248 16.379 6.248 22.628 0" fill="#9E9E9E"/></g><path fill-rule="evenodd" clip-rule="evenodd" d="M16 19.504l5.107 3.716-1.955-6 5.106-3.635h-6.263L16 7.391l-1.995 6.194H7.741l5.106 3.634-1.955 6.001L16 19.504z" fill="#fff"/></svg>